
<svg version="1.1" xmlns="http://www.w3.org/2000/svg" xmlns:xlink="http://www.w3.org/1999/xlink" width="47" height="33" viewBox="0 0 47 33">
<g id="hiw_arrow">
<path id="hiw_arrow" d="M31.649,0.496 C31.009,-0.166 29.943,-0.166 29.281,0.496 C28.640,1.135 28.640,2.199 29.281,2.837 C29.281,2.837 41.291,14.831 41.291,14.831 C41.291,14.831 1.658,14.831 1.658,14.831 C0.734,14.832 -0.000,15.565 -0.000,16.488 C-0.000,17.411 0.734,18.168 1.658,18.168 C1.658,18.168 41.291,18.168 41.291,18.168 C41.291,18.168 29.281,30.139 29.281,30.139 C28.640,30.800 28.640,31.866 29.281,32.504 C29.943,33.166 31.010,33.166 31.649,32.504 C31.649,32.504 46.503,17.671 46.503,17.671 C47.166,17.032 47.166,15.968 46.503,15.330 C46.503,15.330 31.649,0.496 31.649,0.496 z" fill="#0FB8FF" opacity="0.502" />
</g>
</svg>