<svg version="1.1" xmlns="http://www.w3.org/2000/svg" xmlns:xlink="http://www.w3.org/1999/xlink" width="93" height="90" viewBox="0 0 93 90">
<g id="avatar_default">
<path id="wrapper" d="M46.555,0.123 C71.853,0.123 92.361,20.098 92.361,44.739 C92.361,69.380 71.853,89.355 46.555,89.355 C21.257,89.355 0.749,69.380 0.749,44.739 C0.749,20.098 21.257,0.123 46.555,0.123 z" fill="#0fb8ff" />
<path id="avatar" d="M47.000,70.000 C40.428,70.000 28.000,68.934 28.000,64.900 C28.000,64.900 28.000,62.148 28.000,62.148 C28.000,59.339 29.488,56.760 31.884,55.414 C31.884,55.414 39.254,51.279 39.254,51.279 C39.955,50.884 40.391,50.129 40.391,49.307 C40.391,49.307 40.391,46.494 40.391,46.494 C39.838,45.748 38.254,43.425 37.497,40.342 C36.718,39.699 36.261,38.734 36.261,37.700 C36.261,37.700 36.261,34.300 36.261,34.300 C36.261,33.481 36.558,32.688 37.087,32.068 C37.087,32.068 37.087,27.547 37.087,27.547 C37.041,27.080 36.859,24.296 38.815,22.000 C40.512,20.009 43.265,19.000 47.000,19.000 C50.735,19.000 53.488,20.009 55.185,22.001 C57.141,24.297 56.959,27.080 56.913,27.547 C56.913,27.547 56.913,32.068 56.913,32.068 C57.442,32.688 57.739,33.481 57.739,34.300 C57.739,34.300 57.739,37.700 57.739,37.700 C57.739,39.039 56.982,40.224 55.817,40.774 C55.220,42.560 54.400,44.216 53.376,45.703 C53.171,46.002 52.972,46.274 52.782,46.512 C52.782,46.512 52.782,49.385 52.782,49.385 C52.782,50.242 53.245,51.012 53.989,51.396 C53.989,51.396 61.881,55.456 61.881,55.456 C64.421,56.763 66.000,59.391 66.000,62.313 C66.000,62.313 66.000,64.900 66.000,64.900 C66.000,68.934 53.571,70.000 47.000,70.000 z" fill="#FFFFFF" />
</g>
</svg>
