<svg version="1.1" xmlns="http://www.w3.org/2000/svg" xmlns:xlink="http://www.w3.org/1999/xlink" width="25" height="25" viewBox="0 0 25 25">
<path id="sb_icon3" d="M12.500,25.000 C5.625,25.000 -0.000,19.376 -0.000,12.500 C-0.000,5.625 5.625,-0.000 12.500,-0.000 C19.376,-0.000 25.000,5.625 25.000,12.500 C25.000,19.376 19.376,25.000 12.500,25.000 zM12.500,1.562 C6.406,1.562 1.562,6.406 1.562,12.500 C1.562,18.594 6.406,23.437 12.500,23.437 C18.594,23.437 23.437,18.594 23.437,12.500 C23.437,6.406 18.594,1.562 12.500,1.562 zM12.500,20.625 C9.375,20.625 6.563,18.750 5.312,15.781 C5.312,15.781 6.718,15.156 6.718,15.156 C7.656,17.500 10.000,18.906 12.500,18.906 C14.999,18.906 17.343,17.343 18.281,15.156 C18.281,15.156 19.687,15.781 19.687,15.781 C18.437,18.906 15.625,20.625 12.500,20.625 zM15.625,10.937 C14.763,10.937 14.062,10.237 14.062,9.375 C14.062,8.513 14.763,7.812 15.625,7.812 C16.487,7.812 17.187,8.513 17.187,9.375 C17.187,10.237 16.487,10.937 15.625,10.937 zM9.375,10.937 C8.513,10.937 7.812,10.237 7.812,9.375 C7.812,8.513 8.513,7.812 9.375,7.812 C10.237,7.812 10.937,8.513 10.937,9.375 C10.937,10.237 10.237,10.937 9.375,10.937 z" fill="#333333" />
</svg>
