<svg version="1.1" xmlns="http://www.w3.org/2000/svg" xmlns:xlink="http://www.w3.org/1999/xlink" width="28" height="27" viewBox="0 0 28 27">
<path id="sb_icon2" d="M27.962,10.203 C27.870,9.919 27.628,9.716 27.335,9.669 C27.335,9.669 18.600,8.416 18.600,8.416 C18.600,8.416 14.669,0.435 14.669,0.435 C14.537,0.168 14.267,-0.000 13.974,-0.000 C13.974,-0.000 13.974,-0.000 13.974,-0.000 C13.680,-0.000 13.410,0.168 13.278,0.441 C13.278,0.441 9.399,8.445 9.399,8.445 C9.399,8.445 0.664,9.756 0.664,9.756 C0.370,9.803 0.129,10.006 0.037,10.290 C-0.055,10.575 0.026,10.888 0.238,11.091 C0.238,11.091 6.577,17.296 6.577,17.296 C6.577,17.296 5.112,26.083 5.112,26.083 C5.060,26.379 5.181,26.675 5.422,26.849 C5.554,26.948 5.715,27.000 5.876,27.000 C6.002,27.000 6.123,26.971 6.238,26.907 C6.238,26.907 14.037,22.734 14.037,22.734 C14.037,22.734 21.858,26.861 21.858,26.861 C21.973,26.919 22.094,26.948 22.215,26.948 C22.215,26.948 22.215,26.948 22.215,26.948 C22.640,26.948 22.990,26.594 22.990,26.164 C22.990,26.100 22.985,26.042 22.968,25.984 C22.968,25.984 21.456,17.249 21.456,17.249 C21.456,17.249 27.755,11.010 27.755,11.010 C27.979,10.801 28.054,10.488 27.962,10.203 zM20.088,16.419 C19.904,16.599 19.824,16.860 19.870,17.116 C19.870,17.116 21.186,24.736 21.186,24.736 C21.186,24.736 14.393,21.155 14.393,21.155 C14.169,21.033 13.899,21.039 13.669,21.155 C13.669,21.155 6.899,24.777 6.899,24.777 C6.899,24.777 8.169,17.145 8.169,17.145 C8.209,16.889 8.129,16.634 7.945,16.454 C7.945,16.454 2.451,11.068 2.451,11.068 C2.451,11.068 10.031,9.930 10.031,9.930 C10.284,9.890 10.502,9.733 10.612,9.501 C10.612,9.501 13.979,2.554 13.979,2.554 C13.979,2.554 17.393,9.483 17.393,9.483 C17.508,9.716 17.726,9.872 17.979,9.913 C17.979,9.913 25.565,11.004 25.565,11.004 C25.565,11.004 20.088,16.419 20.088,16.419 z" fill="#333333" />
</svg>
