<svg version="1.1" xmlns="http://www.w3.org/2000/svg" xmlns:xlink="http://www.w3.org/1999/xlink" width="26" height="26" viewBox="0 0 26 26">
<g id="sb_icon1">
<path id="sb_icon1" d="M22.193,22.193 C19.840,24.545 16.590,26.000 13.000,26.000 C9.409,26.000 6.159,24.545 3.807,22.193 C1.455,19.840 -0.000,16.590 -0.000,13.000 C-0.000,9.409 1.455,6.159 3.807,3.807 C6.159,1.455 9.409,-0.000 13.000,-0.000 C16.590,-0.000 19.840,1.455 22.193,3.807 C24.545,6.159 26.000,9.409 26.000,13.000 C26.000,16.590 24.545,19.840 22.193,22.193 zM21.079,4.921 C19.005,2.847 16.157,1.578 13.000,1.578 C9.843,1.578 6.995,2.847 4.921,4.921 C2.879,6.995 1.579,9.843 1.579,13.000 C1.579,16.157 2.879,19.005 4.921,21.078 C6.995,23.152 9.843,24.421 13.000,24.421 C16.157,24.421 19.005,23.152 21.079,21.078 C23.152,19.005 24.421,16.157 24.421,13.000 C24.421,9.843 23.152,6.995 21.079,4.921 zM19.531,13.805 C19.531,13.805 13.000,13.805 13.000,13.805 C12.567,13.805 12.195,13.433 12.195,13.000 C12.195,13.000 12.195,5.262 12.195,5.262 C12.195,4.797 12.567,4.457 13.000,4.457 C13.464,4.457 13.805,4.828 13.805,5.262 C13.805,5.262 13.805,12.195 13.805,12.195 C13.805,12.195 19.531,12.195 19.531,12.195 C19.995,12.195 20.336,12.567 20.336,13.000 C20.336,13.464 19.964,13.805 19.531,13.805 z" fill="#000000" />
</g>
</svg>
